<svg xmlns="http://www.w3.org/2000/svg" version="1.1" xmlns:xlink="http://www.w3.org/1999/xlink" xmlns:svgjs="http://svgjs.dev/svgjs" width="2000" height="616" viewBox="0 0 2000 616"><g transform="matrix(1,0,0,1,-1.2121212121212466,-0.7224805694528982)"><svg viewBox="0 0 396 122" data-background-color="#ffffff" preserveAspectRatio="xMidYMid meet" height="616" width="2000" xmlns="http://www.w3.org/2000/svg" xmlns:xlink="http://www.w3.org/1999/xlink"><g id="tight-bounds" transform="matrix(1,0,0,1,0.2400000000000091,0.1430886842098289)"><svg viewBox="0 0 395.52 121.71382263158036" height="121.71382263158036" width="395.52"><g><svg viewBox="0 0 618.288271339632 190.26655793137743" height="121.71382263158036" width="395.52"><g transform="matrix(1,0,0,1,0,26.2958846345102)"><svg viewBox="0 0 395.52 137.67478866235703" height="137.67478866235703" width="395.52"><g id="textblocktransform"><svg viewBox="0 0 395.52 137.67478866235703" height="137.67478866235703" width="395.52" id="textblock"><g><svg viewBox="0 0 395.52 137.67478866235703" height="137.67478866235703" width="395.52"><g transform="matrix(1,0,0,1,0,0)"><svg width="395.52" viewBox="3.25 -35 100.54 35" height="137.67478866235703" data-palette-color="#111111"><path d="M7.95-26L7.95-26 7.95-19.3 17.25-19.3 17.25-14.9 7.95-14.9 7.95 0 3.25 0 3.25-26.65Q3.25-30.35 5.6-32.6L5.6-32.6Q7.2-34.1 9.2-34.55 11.2-35 14.1-35L14.1-35 19.4-35 19.4-30.6 13.45-30.6Q7.95-30.6 7.95-26ZM23.4-9.5L23.4-9.5 23.4-35 27.9-35 27.9-9.5Q27.9-7.7 28.32-6.58 28.75-5.45 29.65-4.98 30.55-4.5 31.4-4.35 32.25-4.2 33.65-4.2L33.65-4.2 33.65 0Q28.05 0 25.72-2.15 23.4-4.3 23.4-9.5ZM50.25-14.1L50.25-14.1 50.25-9.6Q48.35-11.05 45.6-11.05L45.6-11.05Q43.25-11.05 41.95-10.13 40.65-9.2 40.65-7.5L40.65-7.5Q40.65-4.2 45.55-4.2L45.55-4.2 52.15-4.2 52.15-13.75Q52.15-19.8 46.25-19.8L46.25-19.8 38.25-19.8 38.25-24 46.5-24Q51.34-24 53.95-21.6 56.55-19.2 56.55-14.7L56.55-14.7 56.55 0 45.4 0Q41.15 0 38.65-1.9 36.15-3.8 36.15-7.45 36.15-11.1 38.8-13 41.45-14.9 45.45-14.9L45.45-14.9Q47.7-14.9 50.25-14.1ZM68.54-24L68.54 0 64.14 0 64.14-19.8 60.04-19.8 62.04-24 68.54-24ZM63.94-29L63.94-29Q63.29-29.85 63.29-30.85 63.29-31.85 63.94-32.68 64.59-33.5 65.94-33.5 67.29-33.5 67.94-32.68 68.59-31.85 68.59-30.85 68.59-29.85 67.94-29.03 67.29-28.2 65.94-28.2 64.59-28.2 63.94-29ZM85.09-14L85.09-10 73.89-10 73.89-14 85.09-14ZM93.39 0L88.99 0 88.99-13.65Q88.99-19.4 91.14-21.6L91.14-21.6Q92.19-22.7 93.69-23.25 95.19-23.8 96.31-23.9 97.44-24 99.39-24L99.39-24 103.79-24 103.79-19.8 98.49-19.8Q97.49-19.8 96.94-19.75 96.39-19.7 95.64-19.4 94.89-19.1 94.34-18.45L94.34-18.45Q93.39-17.25 93.39-13.65L93.39-13.65 93.39 0Z" opacity="1" transform="matrix(1,0,0,1,0,0)" fill="#111111" class="wordmark-text-0" data-fill-palette-color="primary" id="text-0"></path></svg></g></svg></g></svg></g></svg></g><g transform="matrix(1,0,0,1,428.0217134082546,0)"><svg viewBox="0 0 190.26655793137743 190.26655793137743" height="190.26655793137743" width="190.26655793137743"><g data-palette-color="#ff4136"><rect width="52.00619250124316" height="190.26655793137743" fill="#ff4136" stroke="transparent" data-fill-palette-color="accent" x="0" fill-opacity="1"></rect><rect width="52.00619250124316" height="190.26655793137743" fill="#ff4136" stroke="transparent" data-fill-palette-color="accent" x="63.42218597712581" fill-opacity="0.75"></rect><rect width="52.00619250124316" height="190.26655793137743" fill="#ff4136" stroke="transparent" data-fill-palette-color="accent" x="126.84437195425161" fill-opacity="0.5"></rect></g></svg></g></svg></g><defs></defs></svg><rect width="395.52" height="121.71382263158036" fill="none" stroke="none" visibility="hidden"></rect></g></svg></g></svg>